<?xml version="1.0" encoding="utf-8"?>
<svg version="1.1" xmlns="http://www.w3.org/2000/svg" xmlns:xlink="http://www.w3.org/1999/xlink" x="0px" y="0px"
	 viewBox="0 57.5 73 28.5" style="enable-background:new 0 57.5 73 28.5;" xml:space="preserve">
<g>
	<path class="mountain" d="M8.3,71.8l4.7-2.4c1.1-0.6,2.4-0.5,3.5,0l4.7,2.4c0.5,0.2,1,0.2,1.5,0l4.7-2.4c1.1-0.6,2.4-0.5,3.5,0
		l4.7,2.4c0.5,0.2,1,0.2,1.5,0l4.7-2.4c1.1-0.5,2.4-0.5,3.5,0l4.7,2.4c0.5,0.2,1,0.2,1.5,0l4.7-2.4c1.1-0.6,2.4-0.5,3.5,0l4.7,2.4
		c0.5,0.2,1,0.2,1.5,0l6.9-3.5v-1l-9.7-4.9c-0.8-0.4-1.7-0.4-2.5,0l-5.7,2.9c-0.8,0.4-1.7,0.4-2.5,0l-14-7.1
		c-1.2-0.6-2.5-0.6-3.7,0l-15,7.6c-0.8,0.4-1.7,0.4-2.5,0l-5.9-3c-0.8-0.4-1.7-0.4-2.5,0l-8.7,4.4v1.1l6.7,3.5
		C7.1,72,7.7,72,8.3,71.8z"/>
	<path class="waves wave1" d="M8.2,78.9l4.7-2.4c1.1-0.6,2.4-0.6,3.5,0l4.7,2.4c0.5,0.2,1,0.2,1.5,0l4.7-2.4c1.1-0.6,2.4-0.6,3.5,0
		l4.7,2.4c0.5,0.2,1,0.2,1.5,0l4.7-2.4c1.1-0.6,2.4-0.6,3.5,0l4.7,2.4c0.5,0.2,1,0.2,1.5,0l4.7-2.4c1.1-0.5,2.4-0.6,3.5,0l4.7,2.4
		c0.5,0.2,1,0.2,1.5,0l7-3.5v-4.8l-5.7,2.9c-1.1,0.6-2.4,0.5-3.5,0l-4.7-2.4c-0.5-0.2-1-0.2-1.5,0l-4.7,2.4
		c-0.5,0.3-1.1,0.4-1.7,0.4c-0.6,0-1.2-0.1-1.7-0.4l-4.7-2.4c-0.5-0.2-1-0.2-1.5,0l-4.7,2.4c-1.1,0.5-2.4,0.5-3.5,0l-4.7-2.4
		c-0.5-0.2-1-0.2-1.5,0l-4.7,2.4c-1.1,0.5-2.4,0.5-3.5,0l-4.7-2.4c-0.5-0.2-1-0.2-1.5,0l-4.7,2.4c-1.1,0.5-2.4,0.5-3.5,0l-6-3v4.9
		l6.7,3.4C7.2,79,7.7,79.1,8.2,78.9z"/>
	<path class="waves wave2" d="M65.2,81.3c-0.6,0-1.2-0.1-1.8-0.4l-4.7-2.4c-0.5-0.2-1-0.2-1.5,0l-4.7,2.4c-1.1,0.5-2.4,0.6-3.5,0l-4.7-2.4
		c-0.5-0.2-1-0.2-1.5,0l-4.7,2.4c-1.1,0.5-2.4,0.6-3.5,0l-4.7-2.4c-0.5-0.2-1-0.2-1.5,0l-4.7,2.4c-1.1,0.5-2.4,0.6-3.5,0l-4.7-2.4
		c-0.5-0.2-1-0.2-1.5,0l-4.7,2.4c-1.1,0.5-2.4,0.6-3.5,0l-5.7-2.9v4.5l6.2,3.1c0.8,0.4,1.7,0.4,2.5,0l4.7-2.4c0.8-0.4,1.7-0.4,2.5,0
		l4.7,2.4c0.8,0.4,1.7,0.4,2.5,0l4.7-2.4c0.8-0.4,1.7-0.4,2.5,0l4.7,2.4c0.8,0.4,1.7,0.4,2.5,0l4.7-2.4c0.8-0.4,1.7-0.4,2.5,0
		l4.7,2.4c0.8,0.4,1.7,0.4,2.5,0l4.7-2.4c0.8-0.4,1.7-0.4,2.5,0l4.7,2.4c0.8,0.4,1.7,0.4,2.5,0l6.5-3.25v-4.4l-5.7,2.8
		C66.3,81.1,65.7,81.3,65.2,81.3z"/>
</g>
</svg>
