<?xml version="1.0" encoding="utf-8"?>
<!-- Generator: Adobe Illustrator 23.0.1, SVG Export Plug-In . SVG Version: 6.00 Build 0)  -->
<svg version="1.1" id="Layer_1" xmlns="http://www.w3.org/2000/svg" xmlns:xlink="http://www.w3.org/1999/xlink" x="0px" y="0px"
	 viewBox="0 0 1600 1200" style="enable-background:new 0 0 1600 1200;" xml:space="preserve">
<style type="text/css">
	.st0{fill:#00558D;}
</style>
<path class="st0" d="M680.7,576.9c2.5,1.1,4.5,2.8,5.9,4.9c1.4,2.1,2.1,4.6,2.1,7.5c0,2.8-0.7,5.3-2.1,7.5c-1.4,2.1-3.3,3.8-5.9,4.9
	c-2.5,1.1-5.5,1.7-9,1.7h-7.8V614h-9v-38.8h16.8C675.2,575.1,678.2,575.7,680.7,576.9 M677.4,594.2c1.4-1.2,2.1-2.8,2.1-5
	c0-2.2-0.7-3.9-2.1-5c-1.4-1.2-3.5-1.7-6.2-1.7h-7.3v13.5h7.3C674,595.9,676,595.4,677.4,594.2"/>
<path class="st0" d="M712.2,605.4h-5.4v8.5h-8.8v-31.9h14.5c4.4,0,7.9,1,10.5,3.1c2.6,2.1,3.9,5,3.9,8.6c0,2.3-0.6,4.4-1.7,6.1
	c-1.1,1.7-2.7,3.1-4.8,4l7.1,10h-9.4L712.2,605.4z M716.6,590.2c-1-0.8-2.6-1.3-4.6-1.3h-5.2v9.9h5.2c2,0,3.6-0.4,4.6-1.3
	c1-0.8,1.6-2.1,1.6-3.7C718.1,592.2,717.6,591,716.6,590.2"/>
<rect x="738.3" y="582.1" class="st0" width="8.8" height="31.9"/>
<polygon class="st0" points="788.8,614 788.8,596.5 780.2,610.6 776.3,610.6 767.8,597.1 767.8,614 759.7,614 759.7,582.1 
	767,582.1 778.4,600.6 789.6,582.1 796.9,582.1 797,614 "/>
<polygon class="st0" points="835.3,607.3 835.3,614 809.6,614 809.6,582.1 834.7,582.1 834.7,588.8 818.3,588.8 818.3,594.6 
	832.8,594.6 832.8,601 818.3,601 818.3,607.3 "/>
<path class="st0" d="M854,613.4c-2.9-0.8-5.2-1.9-6.9-3.2l3.1-6.8c1.7,1.2,3.6,2.2,5.9,2.9c2.3,0.7,4.6,1.1,6.9,1.1
	c2.6,0,4.4-0.4,5.7-1.1c1.2-0.8,1.8-1.8,1.8-3c0-0.9-0.4-1.7-1.1-2.3c-0.7-0.6-1.6-1.1-2.8-1.5c-1.1-0.4-2.7-0.8-4.6-1.2
	c-3-0.7-5.4-1.4-7.3-2.1c-1.9-0.7-3.5-1.8-4.9-3.4c-1.3-1.6-2-3.6-2-6.2c0-2.3,0.6-4.3,1.8-6.1c1.2-1.8,3.1-3.3,5.5-4.4
	c2.5-1.1,5.5-1.6,9-1.6c2.5,0,4.9,0.3,7.3,0.9c2.4,0.6,4.4,1.4,6.2,2.6l-2.8,6.8c-3.6-2-7.2-3-10.8-3c-2.5,0-4.4,0.4-5.6,1.2
	c-1.2,0.8-1.8,1.9-1.8,3.2c0,1.3,0.7,2.3,2.1,3c1.4,0.6,3.5,1.3,6.4,1.9c3,0.7,5.4,1.4,7.3,2.1c1.9,0.7,3.5,1.8,4.9,3.3
	c1.4,1.5,2,3.6,2,6.2c0,2.2-0.6,4.2-1.9,6.1c-1.2,1.8-3.1,3.3-5.6,4.4c-2.5,1.1-5.5,1.6-9,1.6C859.8,614.6,856.8,614.2,854,613.4"/>
<rect x="890" y="582.1" class="st0" width="8.8" height="31.9"/>
<path class="st0" d="M932.1,597.6h8v12.9c-1.7,1.3-3.8,2.3-6.2,3c-2.4,0.7-4.7,1.1-7,1.1c-3.5,0-6.6-0.7-9.4-2.1
	c-2.8-1.4-4.9-3.4-6.4-5.9c-1.5-2.5-2.3-5.3-2.3-8.5c0-3.1,0.8-6,2.3-8.5c1.6-2.5,3.7-4.5,6.5-5.9c2.8-1.4,5.9-2.1,9.3-2.1
	c6.1,0,10.8,1.9,13.9,5.7l-5.8,5.2c-2.1-2.5-4.8-3.7-8-3.7c-2.7,0-5,0.9-6.7,2.6c-1.8,1.7-2.6,4-2.6,6.8c0,2.8,0.9,5,2.6,6.8
	c1.8,1.7,4,2.6,6.9,2.6c1.8,0,3.4-0.3,5-1V597.6z"/>
<polygon class="st0" points="951.8,582.1 960.5,582.1 960.5,594.3 973.5,594.3 973.5,582.1 982.3,582.1 982.3,614 973.5,614 
	973.5,601.3 960.5,601.3 960.5,614 951.8,614 "/>
<polygon class="st0" points="1001,588.9 991,588.9 991,582.1 1019.8,582.1 1019.8,588.9 1009.8,588.9 1009.8,614 1001,614 "/>
<path class="st0" d="M1032.2,613.6c-2.5-0.6-4.4-1.5-5.9-2.5l3.1-6.5c1.4,1,3.1,1.7,5,2.3c1.9,0.6,3.9,0.8,5.9,0.8
	c1.8,0,3.2-0.3,4-0.7c0.8-0.5,1.2-1.2,1.2-2c0-1-0.5-1.7-1.6-2.1c-1-0.5-2.7-0.9-4.9-1.4c-2.5-0.5-4.5-1.1-6.1-1.6
	c-1.6-0.6-3-1.5-4.1-2.8c-1.2-1.3-1.7-3.1-1.7-5.3c0-2,0.6-3.8,1.7-5.3c1.1-1.6,2.8-2.8,5-3.6c2.2-0.9,4.7-1.3,7.6-1.3
	c2.1,0,4.2,0.2,6.3,0.7c2,0.5,3.8,1.2,5.3,2.1l-2.8,6.5c-2.7-1.6-5.7-2.4-9-2.4c-1.8,0-3.2,0.3-4,0.8c-0.9,0.5-1.3,1.2-1.3,2.1
	c0,1,0.5,1.7,1.6,2.1c1,0.4,2.7,0.9,4.9,1.3c2.4,0.5,4.5,1.1,6.1,1.6c1.6,0.6,3,1.5,4.2,2.8c1.2,1.3,1.7,3,1.7,5.2
	c0,2-0.6,3.8-1.7,5.4c-1.1,1.6-2.8,2.8-5,3.6c-2.2,0.9-4.8,1.3-7.8,1.3C1037.2,614.6,1034.7,614.3,1032.2,613.6"/>
<g>
	<path class="st0" d="M627.8,551.3c-0.8-0.4-1.7-0.4-2.5,0l-4.7,2.4c-0.8,0.4-1.7,0.4-2.5,0l-4.7-2.4c-0.8-0.4-1.7-0.4-2.5,0
		l-4.7,2.4c-0.8,0.4-1.7,0.4-2.5,0l-4.7-2.4c-0.8-0.4-1.7-0.4-2.5,0l-4.7,2.4c-0.8,0.4-1.7,0.4-2.5,0l-4.7-2.4
		c-0.8-0.4-1.7-0.4-2.5,0l-4.7,2.4c-0.8,0.4-1.7,0.4-2.5,0l-4.7-2.4c-0.8-0.4-1.7-0.4-2.5,0l-6.2,3.1v40.2v4.8v3.3l5.7-2.9
		c0.8-0.4,1.7-0.4,2.5,0l2.9,1.5c0.8,0.4,1.7,0.4,2.5,0l15-7.6c0.8-0.4,1.7-0.4,2.5,0l12.4,6.3c0.8,0.4,1.7,0.4,2.5,0l4.8-2.4
		c0.8-0.4,1.7-0.4,2.5,0l5.1,2.6c0.8,0.4,1.7,0.4,2.5,0l8.4-4.2c0.8-0.4,1.7-0.4,2.5,0l1,0.5v-1.9v-40.2L627.8,551.3z M571.8,569.6
		c-1.4,0-2.5-1.1-2.5-2.5c0-1.4,1.1-2.5,2.5-2.5s2.5,1.1,2.5,2.5C574.2,568.5,573.1,569.6,571.8,569.6z M576.9,583.7
		c-0.8,0-1.4-0.6-1.4-1.4s0.6-1.4,1.4-1.4c0.8,0,1.4,0.6,1.4,1.4S577.6,583.7,576.9,583.7z M618.7,564.8c-1,0-1.8-0.8-1.8-1.8
		s0.8-1.8,1.8-1.8c1,0,1.8,0.8,1.8,1.8S619.7,564.8,618.7,564.8z M608.7,573.2l-5.9,3c-0.7,0.3-1.2,0.9-1.5,1.5l-3,5.9
		c-0.2,0.4-0.9,0.4-1.1,0l-3-5.9c-0.3-0.7-0.9-1.2-1.5-1.5l-5.9-3c-0.4-0.2-0.4-0.9,0-1.1l5.9-3c0.7-0.3,1.2-0.9,1.5-1.5l3-5.9
		c0.2-0.4,0.9-0.4,1.1,0l3,5.9c0.3,0.7,0.9,1.2,1.5,1.5l5.9,3C609.1,572.3,609.1,572.9,608.7,573.2z"/>
	<path class="st0" d="M569.5,622.6l4.7-2.4c1.1-0.6,2.4-0.5,3.5,0l4.7,2.4c0.5,0.2,1,0.2,1.5,0l4.7-2.4c1.1-0.6,2.4-0.5,3.5,0
		l4.7,2.4c0.5,0.2,1,0.2,1.5,0l4.7-2.4c1.1-0.5,2.4-0.5,3.5,0l4.7,2.4c0.5,0.2,1,0.2,1.5,0l4.7-2.4c1.1-0.6,2.4-0.5,3.5,0l4.7,2.4
		c0.5,0.2,1,0.2,1.5,0l6.7-3.4v-0.5l-9.7-4.9c-0.8-0.4-1.7-0.4-2.5,0l-5.7,2.9c-0.8,0.4-1.7,0.4-2.5,0l-14-7.1
		c-1.2-0.6-2.5-0.6-3.7,0l-15,7.6c-0.8,0.4-1.7,0.4-2.5,0l-5.9-3c-0.8-0.4-1.7-0.4-2.5,0l-8.5,4.3v0.7l6.7,3.5
		C568.5,622.8,569.1,622.8,569.5,622.6z"/>
	<path class="st0" d="M626.6,632.1c-0.6,0-1.2-0.1-1.8-0.4l-4.7-2.4c-0.5-0.2-1-0.2-1.5,0l-4.7,2.4c-1.1,0.5-2.4,0.6-3.5,0l-4.7-2.4
		c-0.5-0.2-1-0.2-1.5,0l-4.7,2.4c-1.1,0.5-2.4,0.6-3.5,0l-4.7-2.4c-0.5-0.2-1-0.2-1.5,0l-4.7,2.4c-1.1,0.5-2.4,0.6-3.5,0l-4.7-2.4
		c-0.5-0.2-1-0.2-1.5,0l-4.7,2.4c-1.1,0.5-2.4,0.6-3.5,0l-5.7-2.9v4.5l6.2,3.1c0.8,0.4,1.7,0.4,2.5,0l4.7-2.4c0.8-0.4,1.7-0.4,2.5,0
		l4.7,2.4c0.8,0.4,1.7,0.4,2.5,0l4.7-2.4c0.8-0.4,1.7-0.4,2.5,0l4.7,2.4c0.8,0.4,1.7,0.4,2.5,0l4.7-2.4c0.8-0.4,1.7-0.4,2.5,0
		l4.7,2.4c0.8,0.4,1.7,0.4,2.5,0l4.7-2.4c0.8-0.4,1.7-0.4,2.5,0l4.7,2.4c0.8,0.4,1.7,0.4,2.5,0l6.2-3.1v-4.4l-5.7,2.8
		C627.7,631.9,627.1,632.1,626.6,632.1z"/>
	<path class="st0" d="M569.5,629.7l4.7-2.4c1.1-0.6,2.4-0.6,3.5,0l4.7,2.4c0.5,0.2,1,0.2,1.5,0l4.7-2.4c1.1-0.6,2.4-0.6,3.5,0
		l4.7,2.4c0.5,0.2,1,0.2,1.5,0l4.7-2.4c1.1-0.6,2.4-0.6,3.5,0l4.7,2.4c0.5,0.2,1,0.2,1.5,0l4.7-2.4c1.1-0.5,2.4-0.6,3.5,0l4.7,2.4
		c0.5,0.2,1,0.2,1.5,0l6.7-3.3v-4.8l-5.7,2.9c-1.1,0.6-2.4,0.5-3.5,0l-4.7-2.4c-0.5-0.2-1-0.2-1.5,0l-4.7,2.4
		c-0.5,0.3-1.1,0.4-1.7,0.4c-0.6,0-1.2-0.1-1.7-0.4l-4.7-2.4c-0.5-0.2-1-0.2-1.5,0l-4.7,2.4c-1.1,0.5-2.4,0.5-3.5,0l-4.7-2.4
		c-0.5-0.2-1-0.2-1.5,0l-4.7,2.4c-1.1,0.5-2.4,0.5-3.5,0l-4.7-2.4c-0.5-0.2-1-0.2-1.5,0l-4.7,2.4c-1.1,0.5-2.4,0.5-3.5,0l-5.7-3v4.7
		l6.7,3.4C568.5,629.9,569.1,629.9,569.5,629.7z"/>
</g>
</svg>
