<?xml version="1.0" encoding="utf-8"?>
<svg version="1.1" xmlns="http://www.w3.org/2000/svg" xmlns:xlink="http://www.w3.org/1999/xlink" x="0px" y="0px"
	 viewBox="0 0 73 52" style="enable-background:new 0 0 73 52; fill: currentColor" xml:space="preserve">
<g>
	<path class="sky" d="M66.4,.5c-0.8-0.4-1.7-0.4-2.5,0l-4.7,2.4c-0.8,0.4-1.7,0.4-2.5,0l-4.7-2.4c-0.8-0.4-1.7-0.4-2.5,0
		l-4.7,2.4c-0.8,0.4-1.7,0.4-2.5,0l-4.7-2.4c-0.8-0.4-1.7-0.4-2.5,0l-4.7,2.4c-0.8,0.4-1.7,0.4-2.5,0l-4.7-2.4
		c-0.8-0.4-1.7-0.4-2.5,0l-4.7,2.4c-0.8,0.4-1.7,0.4-2.5,0l-4.7-2.4c-0.8-0.4-1.7-0.4-2.5,0l-6.2,3.1v40.2v4.8v3.3l5.7-2.9
		c0.8-0.4,1.7-0.4,2.5,0l2.9,1.5c0.8,0.4,1.7,0.4,2.5,0l15-7.6c0.8-0.4,1.7-0.4,2.5,0l12.4,6.3c0.8,0.4,1.7,0.4,2.5,0l4.8-2.4
		c0.8-0.4,1.7-0.4,2.5,0l5.1,2.6c0.8,0.4,1.7,0.4,2.5,0l8.4-4.2c0.8-0.4,1.7-0.4,2.5,0l1,0.5v-1.9v-40.2z M10.4,18.8
		c-1.4,0-2.5-1.1-2.5-2.5c0-1.4,1.1-2.5,2.5-2.5s2.5,1.1,2.5,2.5C12.8,17.7,11.7,18.8,10.4,18.8z M15.5,32.9
		c-0.8,0-1.4-0.6-1.4-1.4s0.6-1.4,1.4-1.4c0.8,0,1.4,0.6,1.4,1.4S16.2,32.9,15.5,32.9z M57.3,14c-1,0-1.8-0.8-1.8-1.8
		s0.8-1.8,1.8-1.8c1,0,1.8,0.8,1.8,1.8S58.3,14,57.3,14z M47.3,22.4l-5.9,3c-0.7,0.3-1.2,0.9-1.5,1.5l-3,5.9
		c-0.2,0.4-0.9,0.4-1.1,0l-3-5.9c-0.3-0.7-0.9-1.2-1.5-1.5l-5.9-3c-0.4-0.2-0.4-0.9,0-1.1l5.9-3c0.7-0.3,1.2-0.9,1.5-1.5l3-5.9
		c0.2-0.4,0.9-0.4,1.1,0l3,5.9c0.3,0.7,0.9,1.2,1.5,1.5l5.9,3C47.7,21.5,47.7,22.1,47.3,22.4z"/>
</g>
</svg>
